# xmcd
#
# Track frame offsets:
#	150
#	10699
#	18965
#	27713
#	38159
#	47732
#	57471
#	67957
#	77790
#	87889
#	95744
#	107059
#	116833
#	126256
#	134854
#	146140
#	156683
#	167122
#	176980
#	187175
#	197584
#	210810
#	219587
#	227898
#	237496
#
# Disc length: 3294 seconds
#
# Revision: 0
# Processed by: cddbd v1.5.2PL0 Copyright (c) Steve Scherf et al.
# Submitted via: FairStars CD Ripper 1.90
#
DISCID=7d0cdc19
DTITLE=Mixed - Rockabilly Rampage
DYEAR=1950
DGENRE=Rockabilly
TTITLE0=Billy Gray - Tennessee Toddy
TTITLE1=Curtis Gordon - Sitting of Top of the World
TTITLE2=Joe Clay - Sixteen Chicks
TTITLE3=Mac Curtis - If I Had Me a Worman
TTITLE4=Cliff Johnson - Go 'Way Hound Dog
TTITLE5=Charlie Feathers - Everybody's Loving My Baby
TTITLE6=Buddy Holly - Not Fade Away
TTITLE7=Janis Martin - Barefoot Baby
TTITLE8=The Strikes - Rockin'
TTITLE9=Bobby Lee Trammel - Shirley Lee
TTITLE10=Delbert Barker - No Good Robin Hood
TTITLE11=Autry Inman - Be Bo Baby
TTITLE12=The McCoys - Full Grown Cat
TTITLE13=Dorsey and Johnny Burnette - Warm Love
TTITLE14=Gene Vincent - Woman Love
TTITLE15=George Jones - Who Shot Sam?
TTITLE16=Skeets McDonald - Heartbrekin' Mama
TTITLE17=Johnny Burnette - Drinking Wine Spo De O Dee
TTITLE18=Johnny Carroll and the Hot Rocks - Crazy Crazy Lovin'
TTITLE19=Kip Tyler - She's My Witch
TTITLE20=Roy Hall - Whole Lotta Shakin' Goin' On
TTITLE21=Hoyt Johnson - Little Boy Blue
TTITLE22=Ricky Nelson - Stood Up
TTITLE23=Webb Pierce - Bye Bye Love
TTITLE24=Ferlin Husky - Wang Dang Doo
EXTD=
EXTT0=
EXTT1=
EXTT2=
EXTT3=
EXTT4=
EXTT5=
EXTT6=
EXTT7=
EXTT8=
EXTT9=
EXTT10=
EXTT11=
EXTT12=
EXTT13=
EXTT14=
EXTT15=
EXTT16=
EXTT17=
EXTT18=
EXTT19=
EXTT20=
EXTT21=
EXTT22=
EXTT23=
EXTT24=
PLAYORDER=
